<svg width="24" height="24" viewBox="0 0 24 24" fill="none" xmlns="http://www.w3.org/2000/svg">
<g id="logos:chrome" clip-path="url(#clip0_7_22)">
<path id="Vector" d="M12.0004 18.6765C15.6881 18.6765 18.6774 15.687 18.6774 11.9994C18.6774 8.3117 15.6881 5.3222 12.0004 5.3222C8.31274 5.3222 5.32324 8.3117 5.32324 11.9994C5.32324 15.687 8.31265 18.6765 12.0003 18.6765" fill="white"/>
<path id="Vector_2" d="M3.36478 8.71849C2.86666 7.85567 2.28116 6.95014 1.60828 6.00189C0.55488 7.82602 0.000279923 9.89534 0.000244142 12.0018C0.000208362 14.1082 0.554738 16.1776 1.60808 18.0017C2.66142 19.8259 4.17645 21.3406 6.00084 22.3936C7.82523 23.4465 9.89468 24.0006 12.0011 24.0001C13.1056 22.451 13.8554 21.3342 14.2508 20.6495C15.01 19.3344 15.992 17.4515 17.1967 15.001V14.9995C16.6704 15.912 15.9131 16.6699 15.001 17.1968C14.0889 17.7238 13.0541 18.0013 12.0007 18.0015C10.9473 18.0016 9.91245 17.7244 9.00018 17.1978C8.08791 16.6711 7.33039 15.9135 6.80381 15.0011C5.16769 11.9498 4.02135 9.85549 3.36478 8.71849Z" fill="#229342"/>
<path id="Vector_3" d="M12.0007 23.9996C13.5766 23.9999 15.1371 23.6897 16.5931 23.0867C18.0491 22.4837 19.372 21.5998 20.4863 20.4855C21.6006 19.3711 22.4844 18.0481 23.0873 16.5921C23.6902 15.1361 24.0003 13.5756 23.9999 11.9997C23.9995 9.89323 23.4445 7.82399 22.3909 5.99997C20.1177 5.77591 18.44 5.66388 17.3578 5.66388C16.1308 5.66388 14.3448 5.77591 11.9998 5.99997L11.9985 6.00091C13.0519 6.00039 14.0869 6.27726 14.9994 6.80367C15.9118 7.33009 16.6696 8.08749 17.1964 8.99969C17.7233 9.9119 18.0006 10.9468 18.0006 12.0002C18.0006 13.0536 17.7232 14.0884 17.1963 15.0006L12.0007 23.9996Z" fill="#FBC116"/>
<path id="Vector_4" d="M12.0003 16.751C14.6238 16.751 16.7505 14.6243 16.7505 12.0007C16.7505 9.37709 14.6238 7.25037 12.0002 7.25037C9.37681 7.25037 7.25 9.37718 7.25 12.0007C7.25 14.6242 9.37681 16.751 12.0003 16.751Z" fill="#1A73E8"/>
<path id="Vector_5" d="M12.0004 6.00035H22.3914C21.3384 4.17593 19.8237 2.66089 17.9995 1.60758C16.1753 0.554259 14.1059 -0.000203538 11.9995 -6.10077e-05C9.89302 8.1523e-05 7.82372 0.554825 5.99966 1.60839C4.17561 2.66195 2.66109 4.17719 1.6084 6.00175L6.80393 15.0008L6.80534 15.0016C6.27823 14.0895 6.00056 13.0548 6.00025 12.0014C5.99994 10.948 6.277 9.91304 6.80357 9.00068C7.33014 8.08833 8.08765 7.33071 8.99993 6.80401C9.91221 6.27731 10.9471 6.00009 12.0005 6.00025L12.0004 6.00035Z" fill="#E33B2E"/>
</g>
<defs>
<clipPath id="clip0_7_22">
<rect width="24" height="24" fill="white"/>
</clipPath>
</defs>
</svg>
