<svg xmlns="http://www.w3.org/2000/svg" width="30" height="30" viewBox="0 0 30 30" fill="none">
  <g filter="url(#filter0_i_42_285)">
    <rect width="30" height="30" rx="8" fill="white"/>
  </g>
  <rect x="0.5" y="0.5" width="29" height="29" rx="7.5" stroke="#E1E0FF"/>
  <path d="M20.8947 14.1176L14.6447 7.86761C14.5282 7.75107 14.3898 7.65862 14.2376 7.59554C14.0853 7.53246 13.9221 7.5 13.7572 7.5C13.4244 7.5 13.1051 7.63223 12.8697 7.86761C12.7532 7.98416 12.6607 8.12253 12.5977 8.2748C12.5346 8.42708 12.5021 8.59029 12.5021 8.75511C12.5021 9.08799 12.6344 9.40724 12.8697 9.64261L18.2447 15.0051L12.8697 20.3676C12.7526 20.4838 12.6596 20.6221 12.5961 20.7744C12.5327 20.9267 12.5 21.0901 12.5 21.2551C12.5 21.4201 12.5327 21.5835 12.5961 21.7358C12.6596 21.8882 12.7526 22.0264 12.8697 22.1426C12.986 22.2598 13.1242 22.3528 13.2765 22.4162C13.4289 22.4797 13.5922 22.5124 13.7572 22.5124C13.9223 22.5124 14.0856 22.4797 14.238 22.4162C14.3903 22.3528 14.5285 22.2598 14.6447 22.1426L20.8947 15.8926C21.0119 15.7764 21.1049 15.6382 21.1684 15.4858C21.2318 15.3335 21.2645 15.1701 21.2645 15.0051C21.2645 14.8401 21.2318 14.6767 21.1684 14.5244C21.1049 14.3721 21.0119 14.2338 20.8947 14.1176Z" fill="#6865FF"/>
  <defs>
    <filter id="filter0_i_42_285" x="0" y="0" width="30" height="30" filterUnits="userSpaceOnUse" color-interpolation-filters="sRGB">
      <feFlood flood-opacity="0" result="BackgroundImageFix"/>
      <feBlend mode="normal" in="SourceGraphic" in2="BackgroundImageFix" result="shape"/>
      <feColorMatrix in="SourceAlpha" type="matrix" values="0 0 0 0 0 0 0 0 0 0 0 0 0 0 0 0 0 0 127 0" result="hardAlpha"/>
      <feOffset/>
      <feGaussianBlur stdDeviation="1.75"/>
      <feComposite in2="hardAlpha" operator="arithmetic" k2="-1" k3="1"/>
      <feColorMatrix type="matrix" values="0 0 0 0 0.211078 0 0 0 0 0.195833 0 0 0 0 1 0 0 0 0.5 0"/>
      <feBlend mode="normal" in2="shape" result="effect1_innerShadow_42_285"/>
    </filter>
  </defs>
</svg>