<svg width="44" height="44" viewBox="0 0 44 44" fill="none" xmlns="http://www.w3.org/2000/svg">
<g id="ion:logo-steam">
<path id="Vector" d="M41.1468 17.8922C41.1468 18.5041 40.9654 19.1022 40.6255 19.611C40.2855 20.1197 39.8023 20.5163 39.237 20.7504C38.6717 20.9846 38.0497 21.0459 37.4495 20.9265C36.8494 20.8071 36.2981 20.5125 35.8655 20.0798C35.4328 19.6471 35.1382 19.0959 35.0188 18.4957C34.8994 17.8956 34.9607 17.2736 35.1948 16.7083C35.429 16.143 35.8255 15.6598 36.3343 15.3198C36.8431 14.9799 37.4412 14.7984 38.0531 14.7984C38.8736 14.7984 39.6605 15.1244 40.2407 15.7046C40.8209 16.2848 41.1468 17.0717 41.1468 17.8922ZM38.0359 11.9453C36.4646 11.9457 34.957 12.5659 33.8403 13.6713C32.7236 14.7767 32.0881 16.278 32.0718 17.8492L28.3593 23.1773C28.2052 23.1602 28.0503 23.1516 27.8953 23.1516C27.0961 23.1511 26.3119 23.3679 25.6265 23.7789L8.79997 17.0156C8.62007 16.1956 8.21195 15.4432 7.62272 14.8452C7.03349 14.2471 6.28717 13.828 5.46989 13.636C4.65262 13.4439 3.79771 13.487 3.00383 13.76C2.20996 14.0331 1.50949 14.5251 0.983268 15.1793C0.457046 15.8334 0.126526 16.623 0.0298568 17.4569C-0.0668127 18.2909 0.0743088 19.1352 0.436933 19.8923C0.799558 20.6495 1.3689 21.2887 2.07925 21.7361C2.7896 22.1836 3.612 22.421 4.45153 22.4211C5.25068 22.4216 6.03492 22.2047 6.72028 21.7938L23.5468 28.5484C23.7713 29.5847 24.3584 30.5067 25.2026 31.1483C26.0467 31.7899 27.0923 32.1089 28.1508 32.0477C29.2093 31.9865 30.2112 31.5493 30.9758 30.8147C31.7404 30.0802 32.2175 29.0966 32.3211 28.0414L38.0359 23.8648C39.6165 23.8648 41.1324 23.2369 42.2501 22.1193C43.3678 21.0016 43.9957 19.4857 43.9957 17.9051C43.9957 16.3245 43.3678 14.8086 42.2501 13.6909C41.1324 12.5732 39.6165 11.9453 38.0359 11.9453ZM38.0359 13.9133C38.825 13.9141 39.5962 14.1489 40.252 14.5878C40.9078 15.0268 41.4188 15.6502 41.7204 16.3795C42.022 17.1087 42.1007 17.911 41.9465 18.6849C41.7923 19.4588 41.4122 20.1697 40.8542 20.7277C40.2962 21.2857 39.5854 21.6658 38.8114 21.82C38.0375 21.9741 37.2352 21.8954 36.506 21.5938C35.7768 21.2922 35.1533 20.7813 34.7143 20.1255C34.2754 19.4697 34.0407 18.6985 34.0398 17.9094C34.0407 16.8498 34.462 15.8339 35.2112 15.0847C35.9605 14.3355 36.9764 13.9142 38.0359 13.9133ZM4.45153 14.6867C5.04627 14.6864 5.6299 14.8478 6.14001 15.1536C6.65013 15.4593 7.06755 15.898 7.34762 16.4227L5.7234 15.7695V15.7781C5.09054 15.5462 4.3923 15.5695 3.77631 15.8431C3.16033 16.1167 2.67489 16.6192 2.42264 17.2442C2.1704 17.8692 2.17112 18.5679 2.42466 19.1924C2.67819 19.8169 3.16467 20.3183 3.78122 20.5906V20.5992L5.16481 21.1492C4.93356 21.2013 4.69718 21.2273 4.46012 21.2266C3.59289 21.2277 2.76072 20.8843 2.14668 20.2719C1.53265 19.6594 1.18704 18.8282 1.1859 17.9609C1.18476 17.0937 1.52818 16.2615 2.1406 15.6475C2.75303 15.0335 3.58429 14.6879 4.45153 14.6867ZM27.8953 24.3289C28.4752 24.3291 29.0446 24.4833 29.5454 24.7758C30.0461 25.0682 30.4602 25.4884 30.7453 25.9934C31.0304 26.4984 31.1763 27.07 31.168 27.6499C31.1597 28.2297 30.9976 28.797 30.6982 29.2936C30.3988 29.7902 29.9729 30.1984 29.464 30.4765C28.9551 30.7545 28.3814 30.8924 27.8018 30.876C27.2221 30.8597 26.6572 30.6897 26.1648 30.3834C25.6723 30.0771 25.2701 29.6455 24.9992 29.1328C25.5406 29.3477 26.0734 29.5625 26.6148 29.7859C26.9327 29.9171 27.2735 29.9839 27.6174 29.9825C27.9613 29.9811 28.3015 29.9116 28.6183 29.7779C28.9352 29.6441 29.2224 29.4489 29.4633 29.2035C29.7042 28.9581 29.894 28.6673 30.0219 28.3481C30.1497 28.0288 30.2129 27.6874 30.2079 27.3435C30.203 26.9996 30.1298 26.6602 29.9928 26.3447C29.8558 26.0293 29.6576 25.7442 29.4096 25.5059C29.1617 25.2675 28.869 25.0807 28.5484 24.9562L27.182 24.4062C27.417 24.3594 27.6557 24.3335 27.8953 24.3289Z" fill="#3632FF"/>
</g>
</svg>
