<svg xmlns="http://www.w3.org/2000/svg" width="16" height="16" viewBox="0 0 16 16" fill="none">
  <g clip-path="url(#clip0_42_145)">
    <path d="M7.61819 1.49119C9.65353 1.49119 9.89245 1.50026 10.6969 1.53656C11.4409 1.56982 11.8431 1.69382 12.1123 1.79967C12.4691 1.93879 12.7232 2.1021 12.9893 2.36823C13.2555 2.63437 13.4218 2.88841 13.5579 3.24528C13.6607 3.51444 13.7877 3.91667 13.821 4.66064C13.8573 5.46511 13.8664 5.70402 13.8664 7.73937C13.8664 9.77472 13.8573 10.0136 13.821 10.8181C13.7877 11.5621 13.6637 11.9643 13.5579 12.2335C13.4188 12.5903 13.2555 12.8444 12.9893 13.1105C12.7232 13.3766 12.4691 13.543 12.1123 13.6791C11.8431 13.7819 11.4409 13.9089 10.6969 13.9422C9.89245 13.9785 9.65353 13.9875 7.61819 13.9875C5.58284 13.9875 5.34392 13.9785 4.53946 13.9422C3.79548 13.9089 3.39325 13.7849 3.12409 13.6791C2.76723 13.54 2.51319 13.3766 2.24705 13.1105C1.98091 12.8444 1.81457 12.5903 1.67848 12.2335C1.57566 11.9643 1.44863 11.5621 1.41537 10.8181C1.37908 10.0136 1.37 9.77472 1.37 7.73937C1.37 5.70402 1.37908 5.46511 1.41537 4.66064C1.44863 3.91667 1.57263 3.51444 1.67848 3.24528C1.8176 2.88841 1.98091 2.63437 2.24705 2.36823C2.51319 2.1021 2.76723 1.93576 3.12409 1.79967C3.39325 1.69684 3.79548 1.56982 4.53946 1.53656C5.34392 1.49724 5.58586 1.49119 7.61819 1.49119ZM7.61819 0.118164C5.54957 0.118164 5.28948 0.127237 4.47595 0.163528C3.66544 0.19982 3.11199 0.329864 2.62811 0.51737C2.12608 0.710925 1.70268 0.974038 1.27927 1.39744C0.855874 1.82084 0.595785 2.24726 0.399206 2.74627C0.2117 3.23016 0.0816558 3.7836 0.0453644 4.59713C0.00907287 5.40764 0 5.66773 0 7.73634C0 9.80496 0.00907287 10.065 0.0453644 10.8786C0.0816558 11.6891 0.2117 12.2425 0.399206 12.7294C0.592761 13.2315 0.855874 13.6549 1.27927 14.0783C1.70268 14.5017 2.1291 14.7618 2.62811 14.9583C3.11199 15.1459 3.66544 15.2759 4.47897 15.3122C5.29251 15.3485 5.54957 15.3576 7.62121 15.3576C9.69285 15.3576 9.94991 15.3485 10.7634 15.3122C11.574 15.2759 12.1274 15.1459 12.6143 14.9583C13.1163 14.7648 13.5397 14.5017 13.9631 14.0783C14.3865 13.6549 14.6466 13.2285 14.8432 12.7294C15.0307 12.2456 15.1608 11.6921 15.1971 10.8786C15.2333 10.065 15.2424 9.80798 15.2424 7.73634C15.2424 5.66471 15.2333 5.40764 15.1971 4.59411C15.1608 3.7836 15.0307 3.23016 14.8432 2.74325C14.6497 2.24121 14.3865 1.81781 13.9631 1.39441C13.5397 0.971013 13.1133 0.710925 12.6143 0.514346C12.1304 0.32684 11.577 0.196796 10.7634 0.160504C9.94689 0.127237 9.6868 0.118164 7.61819 0.118164Z" fill="white"/>
    <path d="M7.61819 1.49119C9.65353 1.49119 9.89245 1.50026 10.6969 1.53656C11.4409 1.56982 11.8431 1.69382 12.1123 1.79967C12.4691 1.93879 12.7232 2.1021 12.9893 2.36823C13.2555 2.63437 13.4218 2.88841 13.5579 3.24528C13.6607 3.51444 13.7877 3.91667 13.821 4.66064C13.8573 5.46511 13.8664 5.70402 13.8664 7.73937C13.8664 9.77472 13.8573 10.0136 13.821 10.8181C13.7877 11.5621 13.6637 11.9643 13.5579 12.2335C13.4188 12.5903 13.2555 12.8444 12.9893 13.1105C12.7232 13.3766 12.4691 13.543 12.1123 13.6791C11.8431 13.7819 11.4409 13.9089 10.6969 13.9422C9.89245 13.9785 9.65353 13.9875 7.61819 13.9875C5.58284 13.9875 5.34392 13.9785 4.53946 13.9422C3.79548 13.9089 3.39325 13.7849 3.12409 13.6791C2.76723 13.54 2.51319 13.3766 2.24705 13.1105C1.98091 12.8444 1.81457 12.5903 1.67848 12.2335C1.57566 11.9643 1.44863 11.5621 1.41537 10.8181C1.37908 10.0136 1.37 9.77472 1.37 7.73937C1.37 5.70402 1.37908 5.46511 1.41537 4.66064C1.44863 3.91667 1.57263 3.51444 1.67848 3.24528C1.8176 2.88841 1.98091 2.63437 2.24705 2.36823C2.51319 2.1021 2.76723 1.93576 3.12409 1.79967C3.39325 1.69684 3.79548 1.56982 4.53946 1.53656C5.34392 1.49724 5.58586 1.49119 7.61819 1.49119Z" fill="white"/>
    <path d="M7.61851 3.8252C5.45916 3.8252 3.70508 5.57626 3.70508 7.73862C3.70508 9.90099 5.45614 11.652 7.61851 11.652C9.78087 11.652 11.5319 9.90099 11.5319 7.73862C11.5319 5.57626 9.78087 3.8252 7.61851 3.8252ZM7.61851 10.276C6.21524 10.276 5.0781 9.13887 5.0781 7.7356C5.0781 6.33233 6.21524 5.1952 7.61851 5.1952C9.02178 5.1952 10.1589 6.33233 10.1589 7.7356C10.1589 9.13887 9.02178 10.276 7.61851 10.276Z" fill="#3632FF"/>
    <path d="M11.686 4.58204C12.1905 4.58204 12.5994 4.17313 12.5994 3.66871C12.5994 3.16429 12.1905 2.75537 11.686 2.75537C11.1816 2.75537 10.7727 3.16429 10.7727 3.66871C10.7727 4.17313 11.1816 4.58204 11.686 4.58204Z" fill="#3632FF"/>
  </g>
  <defs>
    <clipPath id="clip0_42_145">
      <rect width="15.2364" height="15.2364" fill="white" transform="translate(0 0.118164)"/>
    </clipPath>
  </defs>
</svg>