<svg xmlns="http://www.w3.org/2000/svg" width="16" height="16" viewBox="0 0 16 16" fill="none">
  <g clip-path="url(#clip0_42_150)">
    <path d="M14.1116 0.118164H1.12474C0.82644 0.118164 0.540359 0.236663 0.329429 0.447593C0.118499 0.658523 0 0.944605 0 1.2429V14.2298C0 14.5281 0.118499 14.8142 0.329429 15.0251C0.540359 15.236 0.82644 15.3545 1.12474 15.3545H14.1116C14.4099 15.3545 14.696 15.236 14.9069 15.0251C15.1179 14.8142 15.2364 14.5281 15.2364 14.2298V1.2429C15.2364 0.944605 15.1179 0.658523 14.9069 0.447593C14.696 0.236663 14.4099 0.118164 14.1116 0.118164ZM4.54128 13.0976H2.25054V5.82122H4.54128V13.0976ZM3.39432 4.81287C3.13448 4.81141 2.88089 4.733 2.66556 4.58755C2.45023 4.4421 2.28281 4.23613 2.18444 3.99562C2.08606 3.75511 2.06113 3.49085 2.1128 3.23619C2.16446 2.98153 2.29041 2.74788 2.47474 2.56473C2.65907 2.38158 2.89352 2.25714 3.14851 2.20711C3.4035 2.15708 3.66759 2.1837 3.90746 2.28362C4.14733 2.38354 4.35223 2.55228 4.49629 2.76854C4.64036 2.9848 4.71713 3.23888 4.71692 3.49873C4.71938 3.6727 4.68678 3.84538 4.62107 4.00649C4.55536 4.16759 4.45789 4.31381 4.33447 4.43645C4.21105 4.55908 4.0642 4.65561 3.90268 4.72028C3.74116 4.78495 3.56827 4.81644 3.39432 4.81287ZM12.9848 13.104H10.6951V9.12878C10.6951 7.95643 10.1967 7.59456 9.55341 7.59456C8.87412 7.59456 8.20753 8.10667 8.20753 9.15841V13.104H5.91679V5.82651H8.11971V6.83486H8.14934C8.37048 6.38729 9.14499 5.6223 10.3269 5.6223C11.605 5.6223 12.9858 6.38094 12.9858 8.60291L12.9848 13.104Z" fill="white"/>
  </g>
  <defs>
    <clipPath id="clip0_42_150">
      <rect width="15.2364" height="15.2364" fill="white" transform="translate(0 0.118164)"/>
    </clipPath>
  </defs>
</svg>