<svg xmlns="http://www.w3.org/2000/svg" width="16" height="16" viewBox="0 0 16 16" fill="none">
  <path fill-rule="evenodd" clip-rule="evenodd" d="M1.29365 7.65335C5.23065 5.93807 7.85594 4.80724 9.1695 4.26089C12.92 2.70092 13.6993 2.42994 14.2073 2.42099C14.319 2.41903 14.5688 2.44671 14.7306 2.57801C14.8672 2.68887 14.9048 2.83863 14.9228 2.94374C14.9408 3.04885 14.9632 3.2883 14.9454 3.47539C14.7421 5.61086 13.8627 10.7931 13.4153 13.1848C13.226 14.1969 12.8533 14.5362 12.4924 14.5694C11.7081 14.6416 11.1126 14.0511 10.353 13.5532C9.16436 12.774 8.49287 12.289 7.3391 11.5287C6.00573 10.65 6.8701 10.1671 7.62999 9.37785C7.82885 9.1713 11.2843 6.02827 11.3512 5.74315C11.3596 5.70749 11.3673 5.57457 11.2884 5.50438C11.2094 5.4342 11.0929 5.4582 11.0088 5.47729C10.8896 5.50434 8.99071 6.7594 5.31225 9.24247C4.77327 9.61257 4.28508 9.7929 3.84768 9.78345C3.36547 9.77303 2.43791 9.51081 1.74837 9.28666C0.902611 9.01174 0.230421 8.86639 0.288953 8.39949C0.319441 8.15629 0.654338 7.90758 1.29365 7.65335Z" fill="white"/>
</svg>