<svg xmlns="http://www.w3.org/2000/svg" width="16" height="16" viewBox="0 0 16 16" fill="none">
  <path d="M13.368 4.67666C13.3739 4.81074 13.3739 4.93872 13.3739 5.0728C13.3797 9.13788 10.3931 13.8307 4.93135 13.8307C3.32045 13.8307 1.73895 13.3492 0.380859 12.4472C0.616027 12.4777 0.851194 12.4899 1.08636 12.4899C2.42094 12.4899 3.72023 12.0267 4.77261 11.1674C3.5027 11.143 2.38566 10.2837 1.99763 9.02818C2.44445 9.11959 2.90303 9.10131 3.33809 8.97332C1.95648 8.69297 0.962898 7.4314 0.957019 5.96261C0.957019 5.95042 0.957019 5.93823 0.957019 5.92604C1.36856 6.16373 1.83302 6.29781 2.30335 6.31C1.00405 5.408 0.598389 3.61011 1.3862 2.20226C2.89715 4.12815 5.11948 5.29221 7.50643 5.42019C7.26538 4.35364 7.59462 3.23224 8.36479 2.47652C9.55826 1.31246 11.4396 1.3734 12.5684 2.6106C13.2328 2.47652 13.8736 2.22055 14.4556 1.86097C14.2322 2.57403 13.7678 3.17739 13.1504 3.56135C13.7384 3.48822 14.3145 3.32366 14.8554 3.07988C14.4556 3.70153 13.95 4.23785 13.368 4.67666Z" fill="white"/>
</svg>