<svg xmlns="http://www.w3.org/2000/svg" width="16" height="16" viewBox="0 0 16 16" fill="none">
  <g clip-path="url(#clip0_42_157)">
    <path d="M0 15.7203L1.07688 11.8098C0.411105 10.662 0.0618477 9.36211 0.0654857 8.03328C0.0654857 3.86934 3.47074 0.483887 7.65092 0.483887C9.68098 0.483887 11.5873 1.2696 13.0171 2.6962C14.4505 4.1228 15.24 6.0201 15.2364 8.0369C15.2364 12.2008 11.8311 15.5863 7.64728 15.5863H7.64364C6.37395 15.5863 5.12608 15.2677 4.01646 14.6666L0 15.7203ZM4.20928 13.3016L4.43848 13.4391C5.40621 14.0112 6.51583 14.3118 7.64728 14.3154H7.65092C11.1253 14.3154 13.9557 11.502 13.9557 8.04052C13.9557 6.36408 13.3009 4.78903 12.1112 3.6014C10.9216 2.41378 9.33536 1.76203 7.65092 1.76203C4.17654 1.75841 1.3461 4.57178 1.3461 8.03328C1.3461 9.21728 1.67716 10.3723 2.31019 11.3717L2.45935 11.6106L1.82269 13.9243L4.20928 13.3016Z" fill="white"/>
    <path d="M0.265625 15.4548L1.30612 11.6783C0.662178 10.5739 0.323835 9.31753 0.323835 8.03576C0.327473 4.01666 3.61267 0.74707 7.65096 0.74707C9.6119 0.74707 11.4491 1.50744 12.8316 2.88335C14.2141 4.25926 14.9745 6.09139 14.9745 8.03938C14.9745 12.0585 11.6856 15.3281 7.65096 15.3281H7.64732C6.42129 15.3281 5.21708 15.0203 4.14747 14.441L0.265625 15.4548Z" fill="#3632FF"/>
    <path d="M0 15.7203L1.07688 11.8098C0.411105 10.662 0.0618477 9.36211 0.0654857 8.03328C0.0654857 3.86934 3.47074 0.483887 7.65092 0.483887C9.68098 0.483887 11.5873 1.2696 13.0171 2.6962C14.4505 4.1228 15.24 6.0201 15.2364 8.0369C15.2364 12.2008 11.8311 15.5863 7.64728 15.5863H7.64364C6.37395 15.5863 5.12608 15.2677 4.01646 14.6666L0 15.7203ZM4.20928 13.3016L4.43848 13.4391C5.40621 14.0112 6.51583 14.3118 7.64728 14.3154H7.65092C11.1253 14.3154 13.9557 11.502 13.9557 8.04052C13.9557 6.36408 13.3009 4.78903 12.1112 3.6014C10.9216 2.41378 9.33536 1.76203 7.65092 1.76203C4.17654 1.75841 1.3461 4.57178 1.3461 8.03328C1.3461 9.21728 1.67716 10.3723 2.31019 11.3717L2.45935 11.6106L1.82269 13.9243L4.20928 13.3016Z" fill="white"/>
    <path fill-rule="evenodd" clip-rule="evenodd" d="M5.75515 4.87539C5.61326 4.56038 5.4641 4.55314 5.32949 4.54952C5.22035 4.5459 5.09301 4.5459 4.96568 4.5459C4.83835 4.5459 4.63461 4.59297 4.45999 4.78125C4.28536 4.96953 3.79785 5.42576 3.79785 6.3563C3.79785 7.28323 4.47818 8.18119 4.57277 8.30792C4.66736 8.43465 5.88612 10.4007 7.81067 11.1575C9.41144 11.7875 9.73886 11.6608 10.0845 11.6282C10.4301 11.5956 11.205 11.172 11.3651 10.7302C11.5215 10.2885 11.5215 9.91194 11.4742 9.83228C11.4269 9.75262 11.2996 9.70555 11.1104 9.61141C10.9212 9.51727 9.98989 9.06105 9.81526 8.99587C9.64064 8.93432 9.5133 8.90173 9.38961 9.09001C9.26227 9.2783 8.89846 9.70193 8.78932 9.82866C8.68018 9.95539 8.5674 9.96987 8.37822 9.87573C8.18903 9.78159 7.57783 9.58244 6.85385 8.93794C6.28995 8.43827 5.90795 7.81911 5.7988 7.63083C5.68966 7.44255 5.78789 7.34116 5.88248 7.24702C5.96616 7.16374 6.07166 7.02615 6.16625 6.91753C6.26084 6.8089 6.29359 6.72925 6.35543 6.60252C6.41728 6.47579 6.38818 6.36717 6.34088 6.27302C6.29359 6.1825 5.9225 5.24834 5.75515 4.87539Z" fill="white"/>
  </g>
  <defs>
    <clipPath id="clip0_42_157">
      <rect width="15.2364" height="15.2364" fill="white" transform="translate(0 0.483887)"/>
    </clipPath>
  </defs>
</svg>